<?xml version="1.0" encoding="UTF-8"?>
<svg id="Layer_1" xmlns="http://www.w3.org/2000/svg" version="1.1" viewBox="0 0 17.36 85.96">
  <!-- Generator: Adobe Illustrator 30.1.0, SVG Export Plug-In . SVG Version: 2.1.1 Build 136)  -->
  <defs>
    <style>
      .st0 {
        fill: #fff;
      }
    </style>
  </defs>
  <path class="st0" d="M.44,10s0,0,0,0c0,0,0,0,0,0v8.26h0s7.57,7.58,7.57,7.58c0,0,0,0,0,0,0,0,0,0,0,0v-8.26h0S.44,10,.44,10Z"/>
  <path class="st0" d="M9.21,11.55l2.86-2.86s0,0,0,0,0,0,0,0l-2.86-2.86s0,0,0,0c0,0,0,0,0,0l-2.86,2.86s0,0,0,0,0,0,0,0l2.86,2.86s0,0,0,0c0,0,0,0,0,0Z"/>
  <path class="st0" d="M9.27,3.97l4.77,4.77-4.77,4.77-4.77-4.77,4.77-4.77M9.27.58s-.01,0-.01,0L1.11,8.73s0,0,0,.01,0,0,0,.01l8.14,8.14s0,0,.01,0,0,0,.01,0l8.14-8.14s0,0,0-.01,0,0,0-.01L9.28.59s0,0-.01,0h0Z"/>
  <path class="st0" d="M10.37,28.98l5.13,4.79s0,.85,0,.85v48.8l1.86,2.54V10.97l-.55.67-6.28,6.3-.25.15.09,10.9h0Z"/>
</svg>