<?xml version="1.0" encoding="UTF-8"?>
<svg id="Layer_1" xmlns="http://www.w3.org/2000/svg" version="1.1" viewBox="0 0 120.21 603.66">
  <!-- Generator: Adobe Illustrator 30.1.0, SVG Export Plug-In . SVG Version: 2.1.1 Build 136)  -->
  <defs>
    <style>
      .st0 {
        fill: #856c4b;
      }
    </style>
  </defs>
  <path class="st0" d="M.11,66.58s-.05-.02-.07-.01c-.02.01-.04.03-.04.06v58.4l.02.05,53.55,53.56s.05.02.07.01c.03-.01.04-.03.04-.06v-58.4l-.02-.05L.11,66.58Z"/>
  <path class="st0" d="M62.09,77.55l20.25-20.25s.01-.02.01-.04,0-.03-.01-.04l-20.25-20.25s-.02-.02-.04-.02c-.01,0-.03,0-.04.02l-20.25,20.25s-.02.02-.02.04,0,.03.02.04l20.25,20.25s.02.02.04.02c.01,0,.03,0,.04-.02Z"/>
  <path class="st0" d="M62.5,23.99l33.73,33.73-33.73,33.73L28.77,57.71,62.5,23.99M62.5,0s-.08.02-.1.05L4.84,57.61s-.05.07-.05.1.02.07.05.1l57.56,57.56s.06.05.1.05c.04,0,.07-.02.1-.05l57.56-57.56s.04-.07.04-.1-.02-.07-.04-.1L62.6.05s-.07-.05-.1-.05h0Z"/>
  <path class="st0" d="M70.28,200.8l36.26,33.84s.03,6,.04,6v345.05l13.16,17.96V73.44l-3.91,4.73-44.43,44.54-1.74,1.05.62,77.05Z"/>
</svg>