<?xml version="1.0" encoding="UTF-8" standalone="no"?>
<!-- Created with Inkscape (http://www.inkscape.org/) -->

<svg
   width="12.347215mm"
   height="14.111428mm"
   viewBox="0 0 12.347215 14.111428"
   version="1.1"
   id="svg1"
   inkscape:version="1.4.4 (dcaf3e7d9e, 2026-05-05)"
   sodipodi:docname="attribute.svg"
   xmlns:inkscape="http://www.inkscape.org/namespaces/inkscape"
   xmlns:sodipodi="http://sodipodi.sourceforge.net/DTD/sodipodi-0.dtd"
   xmlns="http://www.w3.org/2000/svg"
   xmlns:svg="http://www.w3.org/2000/svg">
  <sodipodi:namedview
     id="namedview1"
     pagecolor="#ffffff"
     bordercolor="#000000"
     borderopacity="0.25"
     inkscape:showpageshadow="2"
     inkscape:pageopacity="0.0"
     inkscape:pagecheckerboard="0"
     inkscape:deskcolor="#d1d1d1"
     inkscape:document-units="mm"
     inkscape:zoom="8.1459592"
     inkscape:cx="55.303493"
     inkscape:cy="47.446837"
     inkscape:window-width="1524"
     inkscape:window-height="1394"
     inkscape:window-x="0"
     inkscape:window-y="0"
     inkscape:window-maximized="1"
     inkscape:current-layer="layer1" />
  <defs
     id="defs1" />
  <g
     inkscape:label="Layer 1"
     inkscape:groupmode="layer"
     id="layer1"
     transform="translate(-137.5833,-64.029173)">
    <path
       d="m 145.13419,65.218159 0.0811,0.04621 h 2.39712 l 1.96533,1.666875 v 8.307563 l -1.96533,1.667228 h -2.49025 l -0.084,0.0508 -1.28693,0.775053 -1.3716,-0.779639 -0.0811,-0.04621 h -2.39712 l -1.96533,-1.667228 v -8.307563 l 1.96533,-1.666875 h 2.39712 l 0.0811,-0.04621 1.37725,-0.783167 z"
       style="stroke-opacity:1;stroke-dasharray:none;stroke-miterlimit:4;stroke-linejoin:miter;stroke-linecap:butt;stroke-width:0.705555;stroke:currentColor;fill-rule:nonzero;fill-opacity:1;fill:none;"
       id="path26" />
    <path
       d="m 144.88234,76.164818 h 2.40665 l 1.59526,-1.340203 v -7.478888 l -1.59526,-1.33985 h -2.25108 l -1.28093,-0.705556 -1.28094,0.705556 h -2.33927 l -1.51271,1.33985 v 7.478888 l 1.59526,1.340203 h 2.31881 l 1.26012,0.705556 z m -2.28,-0.246944 h -2.29306 l -1.43827,-1.208264 v -7.252758 l 1.3596,-1.204031 h 2.30893 l 1.21744,-0.67063 1.21743,0.67063 h 2.22462 l 1.43828,1.207911 v 7.248878 l -1.43828,1.208264 h -2.39007 l -1.02023,0.663927 z"
       style="stroke-width:0.352778;stroke:none;fill-rule:nonzero;fill-opacity:1;fill:currentColor;"
       id="path27" />
  </g>
</svg>
