<?xml version="1.0" encoding="UTF-8"?>
<svg id="Layer_1" data-name="Layer 1" xmlns="http://www.w3.org/2000/svg" viewBox="0 0 727.15 12">
  <path d="M357.81,4.57s.04.01.05.02l5.79,5.8s.02.02.05.02.04-.01.05-.02l5.81-5.8s.02-.02.05-.02h.1v.41h-.02s-.04.01-.05.02l-5.88,5.88s-.02.02-.05.02-.04-.01-.05-.02l-5.88-5.88s-.02-.02-.05-.02h-.02v-.41h.11ZM366.96,4.8s0,.05-.01.06l-3.2,3.19s-.02.02-.05.02-.04-.01-.05-.02l-3.2-3.19s-.01-.04-.01-.06,0-.04.01-.05l3.2-3.19s.06-.04.1,0l3.2,3.19s.01.02.01.05Z" fill="#88764d"/>
  <path d="M357.81,4.57s.04.01.05.02l5.79,5.8s.02.02.05.02.04-.01.05-.02l5.81-5.8s.02-.02.05-.02h357.1v.41h-357.02s-.04.01-.05.02l-5.88,5.88s-.02.02-.05.02-.04-.01-.05-.02l-5.88-5.88s-.02-.02-.05-.02H-.3v-.41h358.11Z" fill="#88764d"/>
</svg>