<?xml version="1.0" encoding="UTF-8"?>
<svg id="Layer_1" xmlns="http://www.w3.org/2000/svg" version="1.1" viewBox="0 0 1705.97 279.57">
  <!-- Generator: Adobe Illustrator 30.1.0, SVG Export Plug-In . SVG Version: 2.1.1 Build 136)  -->
  <defs>
    <style>
      .st0, .st1 {
        fill: none;
        stroke: #88764d;
        stroke-miterlimit: 10;
      }

      .st1 {
        stroke-width: .65px;
      }

      .st2 {
        fill: #88764d;
      }
    </style>
  </defs>
  <path class="st0" d="M857.43,24.69s0,.08-.02.11l-5.66,5.63s-.04.04-.08.04-.06-.02-.08-.04l-5.65-5.63s-.02-.06-.02-.11,0-.06.02-.09l5.65-5.63c.06-.06.11-.06.17,0l5.66,5.63s.02.04.02.09Z"/>
  <path class="st2" d="M843,244.54s.05.02.07.04l8.51,8.52s.04.04.07.04.05-.02.07-.04l8.52-8.52s.04-.04.07-.04h.14v.6h-.04s-.05.02-.07.04l-8.63,8.63s-.04.04-.07.04-.05-.02-.07-.04l-8.63-8.63s-.04-.04-.07-.04h-.04v-.6h.16ZM856.43,244.88s0,.07-.02.09l-4.7,4.68s-.04.04-.07.04-.05-.02-.07-.04l-4.7-4.68s-.02-.05-.02-.09,0-.05.02-.07l4.7-4.68c.05-.05.09-.05.14,0l4.7,4.68s.02.04.02.07Z"/>
  <path class="st1" d="M1672.04,244.54h-811.73s-.05.02-.07.04l-8.52,8.52s-.04.04-.07.04-.05-.02-.07-.04l-8.51-8.52s-.04-.04-.07-.04H31.9v.6h810.97s.05.02.07.04l8.63,8.63s.04.04.07.04.05-.02.07-.04l8.63-8.63s.04-.04.07-.04h811.22c.12-.21.26-.41.4-.6Z"/>
  <polygon class="st2" points="31.54 245.51 18.87 232.84 18.87 59.98 20.19 59.98 20.19 232.3 32.47 244.58 31.54 245.51"/>
  <polygon class="st2" points="1671.93 24 1684.6 36.67 1684.6 209.54 1683.28 209.54 1683.28 37.22 1671 24.94 1671.93 24"/>
  <polygon class="st2" points="1671.93 245.44 1684.6 232.77 1684.6 59.91 1683.28 59.91 1683.28 232.23 1671 244.51 1671.93 245.44"/>
  <g>
    <path class="st1" d="M861.1,24.97h810.56c-.16-.2-.31-.4-.46-.6h-810.11c0,.2,0,.32,0,.6Z"/>
    <path class="st1" d="M842.66,24.37H31.94v.6h810.72s0-.6,0-.6Z"/>
  </g>
  <polygon class="st2" points="31.58 24 18.91 36.67 18.91 209.54 20.23 209.54 20.23 37.22 32.51 24.94 31.58 24"/>
</svg>