<!DOCTYPE svg PUBLIC "-//W3C//DTD SVG 1.1//EN" "http://www.w3.org/Graphics/SVG/1.1/DTD/svg11.dtd">
<!-- Uploaded to: SVG Repo, www.svgrepo.com, Transformed by: SVG Repo Mixer Tools -->
<svg fill="#ffffff" height="800px" width="800px" version="1.1" id="Layer_1" xmlns="http://www.w3.org/2000/svg" xmlns:xlink="http://www.w3.org/1999/xlink" viewBox="0 0 512 512" xml:space="preserve">
<g id="SVGRepo_bgCarrier" stroke-width="0"/>
<g id="SVGRepo_tracerCarrier" stroke-linecap="round" stroke-linejoin="round"/>
<g id="SVGRepo_iconCarrier"> <g> <g> <path d="M448.161,81.348c-1.634-1.634-3.318-3.257-5-4.823c-4.222-3.931-10.836-3.695-14.768,0.531 c-3.932,4.223-3.694,10.836,0.531,14.768c1.5,1.396,3.001,2.844,4.46,4.303c2.041,2.04,4.715,3.06,7.388,3.06 c2.674,0,5.348-1.021,7.388-3.06C452.241,92.046,452.241,85.429,448.161,81.348z"/> </g> </g> <g> <g> <path d="M480.239,400.088c-17.918-17.918-41-28.793-65.889-31.235c53.747-28.944,90.364-85.753,90.364-150.961 c0-37.942-11.001-74.672-31.814-106.218c-3.177-4.815-9.657-6.145-14.476-2.967c-4.817,3.179-6.146,9.659-2.968,14.476 c18.553,28.121,28.36,60.872,28.36,94.71c0,82.949-67.478,150.434-150.421,150.434h-34.075c-42.38,0-76.857-34.484-76.857-76.869 v-49.273c0-46.015,37.436-83.451,83.451-83.451h28.197c16.94,0,32.863,6.594,44.837,18.569 c11.975,11.972,18.569,27.897,18.569,44.837c0,34.961-28.444,63.404-63.405,63.404h-13.326c-7.254,0-14.066-2.822-19.196-7.961 c-5.125-5.116-7.947-11.929-7.947-19.182c0-14.967,12.176-27.143,27.144-27.143h2.399c5.77,0,10.449-4.678,10.449-10.449 c0-5.771-4.679-10.449-10.449-10.449h-2.399c-26.491,0-48.042,21.551-48.042,48.041c0,12.844,5.001,24.908,14.07,33.959 c9.065,9.08,21.13,14.082,33.973,14.082h13.326c46.484,0,84.303-37.818,84.303-84.302c0-22.522-8.769-43.693-24.689-59.614 c-15.921-15.921-37.093-24.689-59.615-24.689h-28.196c-57.537,0-104.349,46.81-104.349,104.349v49.273 c0,31.156,14.647,58.953,37.416,76.869h-41.047c-39.657,0-71.92-32.263-71.92-71.92v-14.934v-63.58 c0-94.952,77.249-172.2,172.2-172.2h13.402c33.005,0,65.069,9.36,92.728,27.068c4.858,3.111,11.321,1.694,14.433-3.166 c3.112-4.86,1.694-11.323-3.166-14.434c-31.027-19.866-66.989-30.367-103.996-30.367h-13.403 c-106.474,0.001-193.097,86.624-193.097,193.099v4.926c-5.693-7.014-12.428-13.234-20.049-18.392v-94.237 c0-5.771-4.679-10.449-10.449-10.449c-5.77,0-10.449,4.678-10.449,10.449v83.669c-9.947-3.529-20.481-5.369-31.138-5.369H20.898 v-78.302c0-5.771-4.679-10.449-10.449-10.449C4.679,99.739,0,104.417,0,110.188v88.75v114.837 c0,39.829,13.584,78.124,38.443,108.906l-23.318,23.319c-6.932,6.921-8.99,17.242-5.244,26.296 c3.747,9.057,12.499,14.91,22.297,14.91h66.607h55.692h55.678h55.68h55.692h55.678h55.68h68.667 c5.77,0,10.449-4.678,10.449-10.449C512,447.797,500.72,420.569,480.239,400.088z M443.333,466.307v-6.945 c0-5.771-4.679-10.449-10.449-10.449c-5.77,0-10.449,4.678-10.449,10.449v6.947h-34.782v-6.947 c0-5.771-4.679-10.449-10.449-10.449c-5.77,0-10.449,4.678-10.449,10.449v6.947h-34.78v-6.947c0-5.771-4.679-10.449-10.449-10.449 c-5.77,0-10.449,4.678-10.449,10.449v6.947h-34.794v-6.947c0-5.771-4.679-10.449-10.449-10.449 c-5.77,0-10.449,4.678-10.449,10.449v6.947h-34.782v-6.947c0-5.771-4.679-10.449-10.449-10.449 c-5.77,0-10.449,4.678-10.449,10.449v6.947h-34.78v-6.947c0-5.771-4.679-10.449-10.449-10.449c-5.77,0-10.449,4.678-10.449,10.449 v6.947h-34.794v-6.947c0-5.771-4.679-10.449-10.449-10.449c-5.77,0-10.449,4.678-10.449,10.449v6.947H32.178 c-1.785,0-2.609-1.089-2.986-2.002c-0.376-0.91-0.561-2.259,0.705-3.523l29.294-29.294c1.755-1.387,3.045-3.32,3.631-5.544 c0.898-3.419,0.007-7.06-2.369-9.679c-25.508-28.105-39.555-64.503-39.555-102.489V209.389h12.133 c12.637,0,25.051,3.31,35.932,9.579c0.126,0.082,0.255,0.16,0.385,0.236c22.063,12.887,35.768,36.747,35.768,62.269v14.934 c0,51.18,41.638,92.818,92.818,92.818h205.635c23.379,0,45.359,9.105,61.892,25.64c14.045,14.046,22.731,32.02,25.026,51.443 H443.333z"/> </g> </g> <g> <g> <path d="M59.434,251.505c-5.77,0-10.449,4.678-10.449,10.449v10.048c0,5.771,4.679,10.449,10.449,10.449 c5.77,0,10.449-4.678,10.449-10.449v-10.048C69.883,256.183,65.204,251.505,59.434,251.505z"/> </g> </g> </g>
</svg>