<svg xmlns="http://www.w3.org/2000/svg" viewBox="0 12.149999618530273 28.399999618530273 35.349998474121094" data-asc="0.95" width="28.399999618530273" height="35.349998474121094"><defs/><g fill="#ffffff"><g transform="translate(0, 0)"><path d="M1.30 38.30Q1.10 38.30 1.05 38.05L0 26.55L0 12.95Q0 12.70 0.20 12.70L5.80 12.70Q6.05 12.70 6.05 12.95L6 26.55L4.95 38.05Q4.90 38.30 4.70 38.30L1.30 38.30M0.20 47.50Q0 47.50 0 47.25L0 41.80Q0 41.60 0.20 41.60L5.80 41.60Q6 41.60 6 41.80L6 47.25Q6 47.50 5.80 47.50L0.20 47.50ZM15.85 38.30Q15.60 38.30 15.60 38.10L15.60 35.40Q15.60 33.40 16.52 31.38Q17.45 29.35 19.05 27.75Q20.55 26.25 21.25 25.42Q21.95 24.60 22.15 23.90Q22.35 23.20 22.35 22.25Q22.35 20.50 21.30 19.32Q20.25 18.15 18.65 18.15Q17.05 18.15 15.98 19.32Q14.90 20.50 14.90 22.25L14.90 25.90Q14.90 26.10 14.70 26.10L9.05 26.10Q8.85 26.10 8.85 25.90L8.85 22.25Q8.85 19.45 10.18 17.15Q11.50 14.85 13.73 13.50Q15.95 12.15 18.65 12.15Q21.35 12.15 23.58 13.50Q25.80 14.85 27.10 17.15Q28.40 19.45 28.40 22.25Q28.40 23.90 28.05 25.17Q27.70 26.45 26.75 27.82Q25.80 29.20 23.95 31.25Q22.70 32.50 22.18 33.50Q21.65 34.50 21.65 35.70L21.65 38.10Q21.65 38.30 21.40 38.30L15.85 38.30M15.85 47.50Q15.60 47.50 15.60 47.25L15.60 41.70Q15.60 41.50 15.85 41.50L21.40 41.50Q21.65 41.50 21.65 41.70L21.65 47.25Q21.65 47.50 21.40 47.50L15.85 47.50Z"/></g></g></svg>